<svg id="Capa_1" enable-background="new 0 0 512 512" height="512" viewBox="0 0 512 512" width="512" xmlns="http://www.w3.org/2000/svg"><g><g><path d="m234.077 71.203c-53.548-53.548-140.367-53.548-193.916 0-53.548 53.548-53.548 140.367 0 193.916l21.923 21.923 193.916 193.916 14.226-215.261-14.226-172.571z" fill="#e06379"/><g><path d="m471.839 71.204c-53.549-53.549-140.368-53.549-193.916 0l-21.923 21.922v387.832l193.916-193.916 21.923-21.923c53.548-53.548 53.548-140.367 0-193.915z" fill="#c63c50"/></g></g><g><path d="m201.256 262.774c-21.556 21.556-21.556 56.506 0 78.063 14.819 14.819 35.968 19.451 54.744 13.895l13.115-72.215-13.115-74.487z" fill="#f6dccd"/><path d="m423.528 118.564c-21.557-21.556-56.506-21.556-78.063 0l-89.465 89.466v146.702c8.536-2.526 16.581-7.157 23.319-13.895l144.21-144.21c21.556-21.556 21.556-56.506-.001-78.063z" fill="#f1cbbc"/></g><g><path d="m234.329 229.7 21.671 21.671 11.259-21.67-11.259-21.671z" fill="#eebca8"/><path d="m390.455 229.7-78.063-78.062-56.392 56.392v43.341l56.392 56.392z" fill="#e9a48c"/></g></g></svg>